<?xml version="1.0"?>
<svg width="331" height="289" xmlns="http://www.w3.org/2000/svg" xmlns:svg="http://www.w3.org/2000/svg">
 <!-- Created with SVG-edit - http://svg-edit.googlecode.com/ -->
 <g>
  <title>Layer 1</title>
  <rect stroke="#000000" id="svg_1" height="284.000016" width="325.999994" y="2.500001" x="2.5" stroke-width="5" fill="#003f7f"/>
  <path stroke="#000000" id="svg_2" d="m180.894027,172.818713c13.225594,0 26.451198,0 39.676792,0c0,10.659574 0,21.319155 0,31.978729c-13.225594,0 -26.451198,0 -39.676792,0c0,-10.659574 0,-21.319155 0,-31.978729zm-57.31094,0c14.695017,0 29.390319,0 44.085346,0c0,10.659574 0,21.319155 0,31.978729c-14.695017,0 -29.390319,0 -44.085346,0c0,-10.659574 0,-21.319155 0,-31.978729zm-52.902396,0c14.695017,0 29.39031,0 44.085327,0c0,10.659574 0,21.319155 0,31.978729c-14.695017,0 -29.390319,0 -44.085327,0c0,-10.659574 0,-21.319155 0,-31.978729zm-52.902396,0c14.695017,0 29.39031,0 44.085337,0c0,10.659574 0,21.319155 0,31.978729c-14.695027,0 -29.39031,0 -44.085337,0c0,-10.659574 0,-21.319155 0,-31.978729zm163.115732,65.945887c13.960433,-0.722008 27.920621,0.510132 41.881064,-0.211876c0.895744,-11.251769 0.480846,-22.503561 1.37659,-33.75533c13.064699,0 27.44004,0 40.504464,0c0,-10.659574 0,-21.319163 0,-31.978729c-13.225594,0 -26.451198,0 -39.676792,0c0,-11.843995 0,-23.687959 0,-35.531923c-14.695017,0 -29.39031,0 -44.085327,0c0,-10.659574 0,-21.319155 0,-31.978729c14.695017,0 29.39031,0 44.085327,0c0,10.659574 0,21.319155 0,31.978729c13.064434,0 27.439775,-0.528172 40.504464,-0.528172c0.895744,11.251737 0.480856,23.031725 1.37661,34.283494c13.960424,0.721984 28.117513,-0.06125 42.077966,0.660734c0,10.529801 -0.196911,22.56478 -0.196911,33.094596c-14.695017,0 -29.39031,0 -44.085327,0c0,11.843987 0,23.687935 0,35.531923c-13.225594,0 -26.451198,0 -39.676792,0c0,10.659574 0,21.319155 0,31.978729c-14.695017,0 -29.39031,0 -44.085327,0c0,-10.529801 0,-23.013662 0,-33.54347l-0.00001,0.000024z" stroke-linecap="null" stroke-linejoin="null" stroke-dasharray="null" stroke-width="5" fill="#007fff"/>
  <path stroke="#000000" id="svg_5" d="m55.038978,17.665458l-40.417377,48.134793l40.422044,48.129236l14.701471,-17.502551l-25.72524,-30.626685l25.720573,-30.621129l-14.701471,-17.513663zm59.155918,0l-14.692136,17.508107l25.720573,30.621129l-25.720573,30.621129l14.692136,17.502551l40.426711,-48.129236l-40.426711,-48.12368z" stroke-linecap="null" stroke-linejoin="null" stroke-dasharray="null" stroke-width="5" fill="#7f7f7f"/>
 </g>
</svg>